<svg height="512pt" viewBox="0 0 512 512" width="512pt" xmlns="http://www.w3.org/2000/svg"><path d="m432 462c0 5.523438-4.476562 10-10 10s-10-4.476562-10-10 4.476562-10 10-10 10 4.476562 10 10zm0 0"/><path d="m352 502c0 5.523438-4.476562 10-10 10s-10-4.476562-10-10 4.476562-10 10-10 10 4.476562 10 10zm0 0"/><path d="m312 462c0 5.523438-4.476562 10-10 10s-10-4.476562-10-10 4.476562-10 10-10 10 4.476562 10 10zm0 0"/><path d="m232 502c0 5.523438-4.476562 10-10 10s-10-4.476562-10-10 4.476562-10 10-10 10 4.476562 10 10zm0 0"/><path d="m192 462c0 5.523438-4.476562 10-10 10s-10-4.476562-10-10 4.476562-10 10-10 10 4.476562 10 10zm0 0"/><path d="m112 502c0 5.523438-4.476562 10-10 10s-10-4.476562-10-10 4.476562-10 10-10 10 4.476562 10 10zm0 0"/><path d="m72 462c0 5.523438-4.476562 10-10 10s-10-4.476562-10-10 4.476562-10 10-10 10 4.476562 10 10zm0 0"/><path d="m427 182c-2.691406 0-5.398438.144531-8.15625.429688-8.210938-37.460938-34.742188-68.734376-70.367188-82.648438-4.921874-37.125-27.144531-69.226562-60.417968-86.730469-4.886719-2.570312-10.933594-.695312-13.503906 4.191407-2.574219 4.890624-.695313 10.9375 4.191406 13.507812 24.863281 13.082031 42.253906 36.046875 48.359375 63.035156-6.605469-1.171875-13.324219-1.785156-20.105469-1.785156-41.960938 0-80.75 23.390625-100.789062 60.175781-1.363282-.109375-2.769532-.175781-4.210938-.175781-35.417969 0-64.777344 26.441406-69.375 60.621094-18.574219 2.472656-35.28125 12.265625-46.597656 27.378906h-16.027344c-27.570312 0-50-22.429688-50-50s22.429688-50 50-50c5.523438 0 10-4.476562 10-10 0-27.570312 22.429688-50 50-50 2.578125 0 5.1875.347656 8.3125.863281 4.4375.738281 8.816406-1.574219 10.707031-5.652343 10.222657-22.03125 28.125-39.171876 50.414063-48.269532 5.113281-2.085937 7.570312-7.921875 5.480468-13.035156-2.085937-5.117188-7.925781-7.566406-13.035156-5.480469-24.703125 10.082031-44.949218 28.308594-57.675781 51.75-1.359375-.109375-2.761719-.175781-4.203125-.175781-35.421875 0-64.78125 26.441406-69.375 60.625-34.183594 4.59375-60.625 33.953125-60.625 69.375 0 38.597656 31.402344 69.988281 70 69.988281h5.539062c-2.332031 7.050781-3.539062 14.480469-3.539062 22.011719 0 38.597656 31.402344 70 70 70h285c46.867188 0 85-38.132812 85-85s-38.132812-85-85-85zm0 150h-285c-27.570312 0-50-22.429688-50-50 0-27.246094 21.976562-50 50-50 5.523438 0 10-4.476562 10-10 0-27.570312 22.429688-50 50-50 2.578125 0 5.1875.347656 8.3125.863281 4.4375.738281 8.816406-1.578125 10.707031-5.652343 15.5625-33.539063 49.308594-55.210938 85.980469-55.210938 48.46875 0 87.882812 36.535156 93.757812 83.148438.351563 2.792968 1.863282 5.308593 4.164063 6.925781 2.300781 1.621093 5.179687 2.199219 7.925781 1.585937 5.039063-1.117187 9.667969-1.660156 14.152344-1.660156 35.839844 0 65 29.160156 65 65s-29.160156 65-65 65zm0 0"/><path d="m117.527344 470.945312c4.945312 2.46875 10.949218.460938 13.417968-4.472656l20-40c2.46875-4.941406.46875-10.949218-4.472656-13.417968s-10.945312-.46875-13.417968 4.472656l-20 40c-2.46875 4.941406-.464844 10.949218 4.472656 13.417968zm0 0"/><path d="m250.945312 466.472656 20-40c2.46875-4.941406.464844-10.949218-4.472656-13.417968-4.941406-2.46875-10.949218-.46875-13.417968 4.472656l-20 40c-2.46875 4.941406-.46875 10.945312 4.472656 13.417968 4.945312 2.46875 10.949218.460938 13.417968-4.472656zm0 0"/><path d="m106.472656 373.054688c-4.941406-2.46875-10.949218-.464844-13.417968 4.472656l-20 40c-2.46875 4.941406-.46875 10.949218 4.472656 13.417968 4.945312 2.472657 10.949218.460938 13.417968-4.472656l20-40c2.46875-4.941406.464844-10.949218-4.472656-13.417968zm0 0"/><path d="m226.472656 373.054688c-4.941406-2.46875-10.949218-.464844-13.417968 4.472656l-20 40c-2.46875 4.941406-.46875 10.949218 4.472656 13.417968 4.945312 2.472657 10.949218.460938 13.417968-4.472656l20-40c2.46875-4.941406.464844-10.949218-4.472656-13.417968zm0 0"/><path d="m346.472656 373.054688c-4.941406-2.46875-10.949218-.464844-13.417968 4.472656l-20 40c-2.46875 4.941406-.46875 10.949218 4.472656 13.417968 4.945312 2.472657 10.949218.460938 13.417968-4.472656l20-40c2.46875-4.941406.464844-10.949218-4.472656-13.417968zm0 0"/><path d="m450.945312 426.472656 20-40c2.46875-4.941406.464844-10.949218-4.472656-13.417968-4.941406-2.46875-10.949218-.46875-13.417968 4.472656l-20 40c-2.46875 4.941406-.46875 10.945312 4.472656 13.417968 4.945312 2.46875 10.949218.460938 13.417968-4.472656zm0 0"/><path d="m370.945312 466.472656 20-40c2.46875-4.941406.464844-10.949218-4.472656-13.417968-4.941406-2.46875-10.949218-.46875-13.417968 4.472656l-20 40c-2.46875 4.941406-.46875 10.945312 4.472656 13.417968 4.945312 2.46875 10.949218.460938 13.417968-4.472656zm0 0"/><path d="m250 10c0 5.523438-4.476562 10-10 10s-10-4.476562-10-10 4.476562-10 10-10 10 4.476562 10 10zm0 0"/></svg>