<svg height="512pt" viewBox="0 -21 512 512" width="512pt" xmlns="http://www.w3.org/2000/svg"><path d="m502 120c-27.648438 0-50-22.371094-50-50 0-5.523438-4.476562-10-10-10s-10 4.476562-10 10c0 27.570312-22.429688 50-50 50-5.523438 0-10 4.476562-10 10s4.476562 10 10 10c27.570312 0 50 22.429688 50 50 0 5.523438 4.476562 10 10 10s10-4.476562 10-10c0-27.648438 22.371094-50 50-50 5.523438 0 10-4.476562 10-10s-4.476562-10-10-10zm-60.027344 33.933594c-5.910156-9.796875-14.160156-18.027344-23.964844-23.933594 9.804688-5.90625 18.054688-14.136719 23.964844-23.933594 5.789063 9.597656 13.980469 17.929688 23.925782 23.933594-10.015626 6.050781-18.183594 14.414062-23.925782 23.933594zm0 0"/><path d="m20 240c0 5.523438-4.476562 10-10 10s-10-4.476562-10-10 4.476562-10 10-10 10 4.476562 10 10zm0 0"/><path d="m3.675781 193.375c-.972656 5.4375 2.648438 10.632812 8.085938 11.605469 5.433593.976562 10.628906-2.644531 11.601562-8.082031 18.328125-102.503907 107.335938-176.898438 211.636719-176.898438 26.988281 0 53.773438 5.175781 78.859375 15.128906-26.980469 6.539063-52.292969 19.449219-73.417969 37.726563-36.890625 31.917969-60.441406 79.398437-60.441406 132.144531 0 115.554688 109.585938 197.703125 218.371094 169.488281-40.578125 47.769531-99.65625 75.511719-163.371094 75.511719-99.660156 0-187.871094-70.457031-209.742188-167.53125-1.214843-5.390625-6.566406-8.777344-11.957031-7.558594-5.386719 1.214844-8.769531 6.566406-7.554687 11.953125 23.757812 105.453125 118.082031 183.136719 229.253906 183.136719 81.011719 0 156.101562-41.726562 199.261719-110.820312 2.351562-3.769532 1.9375-8.640626-1.019531-11.957032-2.960938-3.316406-7.75-4.28125-11.761719-2.371094-57.832031 27.542969-124.714844 16.515626-170.402344-24.851562h73.921875c30.328125 0 55-24.671875 55-55s-24.671875-55-55-55c-2.933594 0-5.867188.25-8.789062.742188-10.640626-35.738282-43.375-60.742188-81.210938-60.742188-9.097656 0-18.019531 1.460938-26.503906 4.265625 20.429687-59.335937 75.140625-101.019531 139.5-103.894531 4.4375-.199219 8.207031-3.296875 9.265625-7.609375 1.058593-4.316407-.855469-8.808594-4.695313-11.035157-35.808594-20.753906-76.460937-31.726562-117.566406-31.726562-114.925781 0-211.566406 82.894531-231.324219 193.375zm295.25 31.335938c.476563 2.984374 2.277344 5.589843 4.898438 7.09375 2.621093 1.503906 5.78125 1.742187 8.601562.644531 4.179688-1.625 8.410157-2.449219 12.574219-2.449219 19.300781 0 35 15.703125 35 35 0 19.300781-15.699219 35-35 35h-92.46875c-21.003906-27.058594-32.53125-60.605469-32.53125-95 0-8.71875.730469-17.445312 2.179688-26.007812 9.929687-5.890626 21.191406-8.992188 32.820312-8.992188 31.96875 0 58.855469 23.007812 63.925781 54.710938zm0 0"/></svg>