<svg height="512pt" viewBox="0 0 512 512" width="512pt" xmlns="http://www.w3.org/2000/svg"><path d="m121.648438 376.207031-42.429688 42.429688c-3.90625 3.90625-3.90625 10.238281 0 14.144531s10.238281 3.90625 14.144531 0l42.429688-42.429688c3.902343-3.90625 3.902343-10.238281 0-14.144531-3.90625-3.902343-10.238281-3.902343-14.144531 0zm0 0"/><path d="m418.640625 79.21875-42.429687 42.429688c-3.90625 3.90625-3.90625 10.238281 0 14.144531 3.902343 3.902343 10.234374 3.902343 14.140624 0l42.429688-42.429688c3.90625-3.90625 3.90625-10.238281 0-14.144531s-10.238281-3.90625-14.140625 0zm0 0"/><path d="m79.21875 79.21875c-3.90625 3.90625-3.90625 10.238281 0 14.144531l42.429688 42.429688c3.90625 3.902343 10.238281 3.902343 14.144531 0 3.902343-3.90625 3.902343-10.238281 0-14.144531l-42.429688-42.429688c-3.90625-3.90625-10.238281-3.90625-14.144531 0zm0 0"/><path d="m376.207031 376.207031c-3.902343 3.90625-3.902343 10.238281 0 14.144531l42.429688 42.429688c3.90625 3.90625 10.238281 3.90625 14.144531 0s3.90625-10.238281 0-14.144531l-42.429688-42.429688c-3.90625-3.902343-10.238281-3.902343-14.144531 0zm0 0"/><path d="m10 266h66c5.523438 0 10-4.476562 10-10s-4.476562-10-10-10h-66c-5.523438 0-10 4.476562-10 10s4.476562 10 10 10zm0 0"/><path d="m502 246h-66c-5.523438 0-10 4.476562-10 10s4.476562 10 10 10h66c5.523438 0 10-4.476562 10-10s-4.476562-10-10-10zm0 0"/><path d="m190.949219 98.9375c5.101562-2.113281 7.523437-7.960938 5.410156-13.066406l-11.480469-27.707032c-2.113281-5.101562-7.960937-7.523437-13.066406-5.410156-5.101562 2.113282-7.523438 7.960938-5.410156 13.0625l11.480468 27.710938c2.105469 5.085937 7.945313 7.53125 13.066407 5.410156zm0 0"/><path d="m321.050781 413.0625c-5.101562 2.113281-7.523437 7.960938-5.410156 13.066406l11.480469 27.707032c2.109375 5.085937 7.945312 7.53125 13.066406 5.410156 5.101562-2.113282 7.523438-7.960938 5.410156-13.0625l-11.480468-27.710938c-2.113282-5.101562-7.964844-7.523437-13.066407-5.410156zm0 0"/><path d="m334.117188 93.527344 11.480468-27.710938c2.117188-5.101562-.308594-10.949218-5.410156-13.0625-5.101562-2.113281-10.953125.308594-13.066406 5.410156l-11.480469 27.707032c-2.113281 5.105468.308594 10.953125 5.414063 13.066406 5.128906 2.125 10.960937-.335938 13.0625-5.410156zm0 0"/><path d="m177.882812 418.472656-11.480468 27.710938c-2.117188 5.101562.308594 10.949218 5.410156 13.0625 5.132812 2.125 10.964844-.335938 13.066406-5.410156l11.480469-27.707032c2.113281-5.105468-.308594-10.953125-5.414063-13.066406-5.097656-2.113281-10.949218.308594-13.0625 5.410156zm0 0"/><path d="m453.835938 184.878906c5.101562-2.113281 7.527343-7.964844 5.410156-13.066406-2.113282-5.101562-7.960938-7.523438-13.0625-5.410156l-27.710938 11.480468c-5.101562 2.113282-7.527344 7.964844-5.410156 13.066407 2.105469 5.085937 7.945312 7.527343 13.066406 5.410156zm0 0"/><path d="m58.164062 327.121094c-5.101562 2.113281-7.527343 7.964844-5.410156 13.066406 2.105469 5.085938 7.945313 7.53125 13.0625 5.410156l27.710938-11.480468c5.101562-2.113282 7.527344-7.964844 5.410156-13.066407-2.113281-5.101562-7.960938-7.523437-13.066406-5.410156zm0 0"/><path d="m453.835938 327.121094-27.707032-11.480469c-5.105468-2.109375-10.953125.308594-13.066406 5.410156-2.117188 5.105469.308594 10.953125 5.410156 13.066407l27.710938 11.480468c5.128906 2.125 10.960937-.335937 13.0625-5.410156 2.117187-5.101562-.308594-10.953125-5.410156-13.066406zm0 0"/><path d="m52.75 171.8125c-2.113281 5.101562.308594 10.953125 5.410156 13.066406l27.710938 11.480469c5.132812 2.125 10.964844-.335937 13.066406-5.410156 2.113281-5.105469-.308594-10.953125-5.410156-13.066407l-27.710938-11.480468c-5.101562-2.113282-10.949218.308594-13.066406 5.410156zm0 0"/><path d="m266 76v-66c0-5.523438-4.476562-10-10-10s-10 4.476562-10 10v66c0 5.523438 4.476562 10 10 10s10-4.476562 10-10zm0 0"/><path d="m246 436v66c0 5.523438 4.476562 10 10 10s10-4.476562 10-10v-66c0-5.523438-4.476562-10-10-10s-10 4.476562-10 10zm0 0"/><path d="m266 396c0 5.523438-4.476562 10-10 10s-10-4.476562-10-10 4.476562-10 10-10 10 4.476562 10 10zm0 0"/><path d="m106 256c0 64.546875 41.152344 121.71875 102.398438 142.261719 5.234374 1.753906 10.90625-1.066407 12.660156-6.300781 1.757812-5.238282-1.0625-10.90625-6.300782-12.664063-53.089843-17.804687-88.757812-67.355469-88.757812-123.296875 0-71.683594 58.316406-130 130-130s130 58.316406 130 130c0 55.941406-35.667969 105.492188-88.757812 123.296875-5.238282 1.757813-8.058594 7.425781-6.300782 12.664063 1.753906 5.230468 7.417969 8.054687 12.660156 6.300781 61.246094-20.542969 102.398438-77.714844 102.398438-142.261719 0-82.710938-67.289062-150-150-150s-150 67.289062-150 150zm0 0"/></svg>